/* XPM */
static char * bitfighter_xpm[] = {
"32 32 287 2",
"  	c None",
". 	c #000000",
"+ 	c #020202",
"@ 	c #1E1E1E",
"# 	c #191919",
"$ 	c #333333",
"% 	c #1A1A19",
"& 	c #2F2F2F",
"* 	c #666969",
"= 	c #5F6767",
"- 	c #FFCBCB",
"; 	c #B6B9B9",
"> 	c #30302F",
", 	c #4F5050",
"' 	c #656565",
") 	c #0E0E0E",
"! 	c #8C8B8B",
"~ 	c #9FA0A0",
"{ 	c #8F9E9E",
"] 	c #C97777",
"^ 	c #FF7B7B",
"/ 	c #F48484",
"( 	c #606A6A",
"_ 	c #2C2C2C",
": 	c #646465",
"< 	c #040404",
"[ 	c #727272",
"} 	c #E4E3E3",
"| 	c #E3E1E1",
"1 	c #5C6869",
"2 	c #4F4242",
"3 	c #FF2D2D",
"4 	c #630000",
"5 	c #E60000",
"6 	c #E9EFEF",
"7 	c #2A2A2A",
"8 	c #878787",
"9 	c #161616",
"0 	c #848484",
"a 	c #E5E5E5",
"b 	c #D4D3D3",
"c 	c #130000",
"d 	c #140708",
"e 	c #B70102",
"f 	c #C80000",
"g 	c #A40000",
"h 	c #381919",
"i 	c #E4E2E2",
"j 	c #2B2B2B",
"k 	c #767676",
"l 	c #A9A9A9",
"m 	c #B1B1B1",
"n 	c #B7B8B8",
"o 	c #4B5555",
"p 	c #3B0000",
"q 	c #590000",
"r 	c #BB0000",
"s 	c #BD0000",
"t 	c #230000",
"u 	c #1C0000",
"v 	c #860000",
"w 	c #FFEBEB",
"x 	c #0B0B0B",
"y 	c #010101",
"z 	c #949494",
"A 	c #B2B2B2",
"B 	c #A2A2A2",
"C 	c #6B6B6B",
"D 	c #717171",
"E 	c #260000",
"F 	c #9E0000",
"G 	c #810000",
"H 	c #690000",
"I 	c #670000",
"J 	c #E0E4E4",
"K 	c #141414",
"L 	c #030303",
"M 	c #272727",
"N 	c #F3F3F3",
"O 	c #EEEEEE",
"P 	c #606060",
"Q 	c #373737",
"R 	c #282828",
"S 	c #D30000",
"T 	c #380000",
"U 	c #0D0000",
"V 	c #210000",
"W 	c #9F0000",
"X 	c #897D7D",
"Y 	c #696969",
"Z 	c #070707",
"` 	c #A3A3A3",
" .	c #CFCFCF",
"..	c #030000",
"+.	c #300000",
"@.	c #EB0000",
"#.	c #450000",
"$.	c #900000",
"%.	c #98A1A1",
"&.	c #3E3E3E",
"*.	c #6F6F6F",
"=.	c #7D7D7D",
"-.	c #010505",
";.	c #4E0000",
">.	c #6D0000",
",.	c #B00000",
"'.	c #520000",
").	c #370000",
"!.	c #170000",
"~.	c #F00000",
"{.	c #0B1D1D",
"].	c #ADADAD",
"^.	c #343434",
"/.	c #6C6C6C",
"(.	c #A3A5A6",
"_.	c #1E0000",
":.	c #AE0000",
"<.	c #760000",
"[.	c #5F0000",
"}.	c #310000",
"|.	c #880000",
"1.	c #9D0000",
"2.	c #050000",
"3.	c #575B5B",
"4.	c #6E6E6E",
"5.	c #4E4D4D",
"6.	c #BBBABA",
"7.	c #910000",
"8.	c #3E0000",
"9.	c #010000",
"0.	c #110000",
"a.	c #B50000",
"b.	c #840000",
"c.	c #510000",
"d.	c #5B5A5A",
"e.	c #060606",
"f.	c #858585",
"g.	c #010202",
"h.	c #585757",
"i.	c #859C9C",
"j.	c #B20C0C",
"k.	c #410000",
"l.	c #270000",
"m.	c #C70000",
"n.	c #5C0000",
"o.	c #6E0000",
"p.	c #A60000",
"q.	c #360000",
"r.	c #282929",
"s.	c #BCBCBC",
"t.	c #747474",
"u.	c #1F1F1F",
"v.	c #A16565",
"w.	c #8D898E",
"x.	c #8B0404",
"y.	c #580000",
"z.	c #8F0000",
"A.	c #750000",
"B.	c #660000",
"C.	c #200000",
"D.	c #222222",
"E.	c #C8C8C8",
"F.	c #525252",
"G.	c #202020",
"H.	c #492727",
"I.	c #A6060B",
"J.	c #EC7D3D",
"K.	c #A5A5AD",
"L.	c #680000",
"M.	c #7C0000",
"N.	c #A00000",
"O.	c #550000",
"P.	c #560000",
"Q.	c #7D0000",
"R.	c #AFAFAF",
"S.	c #8B8B8B",
"T.	c #292929",
"U.	c #5C2021",
"V.	c #FF3500",
"W.	c #AA3D00",
"X.	c #FAF41E",
"Y.	c #D3B5B2",
"Z.	c #D04900",
"`.	c #491800",
" +	c #020000",
".+	c #180000",
"++	c #F0F0F0",
"@+	c #100F0F",
"#+	c #8D2A2C",
"$+	c #EF3700",
"%+	c #BD6300",
"&+	c #E3D900",
"*+	c #B19109",
"=+	c #CA974B",
"-+	c #C51511",
";+	c #470000",
">+	c #870000",
",+	c #303030",
"'+	c #CACACA",
")+	c #1F2121",
"!+	c #FB0800",
"~+	c #B14100",
"{+	c #FBE200",
"]+	c #9E8400",
"^+	c #AE9B00",
"/+	c #F3F444",
"(+	c #94AE99",
"_+	c #610000",
":+	c #FD0000",
"<+	c #D8D8D8",
"[+	c #0D0D0D",
"}+	c #040B0B",
"|+	c #D02627",
"1+	c #961B00",
"2+	c #C94E00",
"3+	c #E8D500",
"4+	c #F1F100",
"5+	c #D4BF00",
"6+	c #D46F00",
"7+	c #FF9229",
"8+	c #B9C8C6",
"9+	c #5D0000",
"0+	c #A80000",
"a+	c #D7D7D7",
"b+	c #181818",
"c+	c #020C0C",
"d+	c #FE120E",
"e+	c #DF6900",
"f+	c #C86300",
"g+	c #B34E00",
"h+	c #A44000",
"i+	c #FA7100",
"j+	c #AD3700",
"k+	c #D50B0C",
"l+	c #F62222",
"m+	c #AEBFBF",
"n+	c #840707",
"o+	c #4A0000",
"p+	c #999999",
"q+	c #595959",
"r+	c #552F31",
"s+	c #FC2B08",
"t+	c #EC7000",
"u+	c #A84400",
"v+	c #C45400",
"w+	c #FC5100",
"x+	c #91020B",
"y+	c #C11D20",
"z+	c #3A3131",
"A+	c #000706",
"B+	c #545252",
"C+	c #889A9A",
"D+	c #A21111",
"E+	c #060000",
"F+	c #9F9F9F",
"G+	c #464646",
"H+	c #CA1B22",
"I+	c #F67700",
"J+	c #AE2C00",
"K+	c #FF3200",
"L+	c #CF0300",
"M+	c #94242A",
"N+	c #722D2D",
"O+	c #5C5B5B",
"P+	c #9DA7A7",
"Q+	c #A0A0A0",
"R+	c #933131",
"S+	c #8C0506",
"T+	c #FF1000",
"U+	c #C71B1C",
"V+	c #372323",
"W+	c #442323",
"X+	c #0B0C0C",
"Y+	c #3F3F3F",
"Z+	c #D3D3D3",
"`+	c #424242",
" @	c #8F8F8F",
".@	c #932E2E",
"+@	c #FC1515",
"@@	c #2A3232",
"#@	c #0D1717",
"$@	c #313131",
"%@	c #FFFFFF",
"&@	c #000202",
"*@	c #000505",
"=@	c #4B4B4B",
"-@	c #636363",
"      . . . . . . . . . . . . . . . . . . . . . . . . .         ",
"    . . . . . . . . . . . . . . . . . . . . . . . . . . . .     ",
"  . . . . . . . . . . . . . . . . . . . . . . . . . . . . . .   ",
". . . . . . . . . . . . . . . . . . . . . . . . . + @ # . . . . ",
". . . . . . . . . . . . . . . . $ % . . . . . & * = - ; . . . . ",
". . . . . . . . . . . . . . . > , ' ) . . ! ~ { ] ^ / ( . . . . ",
". . . . . . . . . . . . . . _ : < < [ } | 1 2 3 4 5 6 . . . . . ",
". . . . . . . . . . . . . 7 8 9 0 a b c d e f . g h i . . . . . ",
". . . . . . . . . . . j k l m n o p q r s t . u v w x y . . . . ",
". . . . . . . . . z A B C D . E F G H . . . . q I J K . . . . . ",
". . . . L . M N O P Q R . . S g T U . . . . V W X Y Z . . . . . ",
". . . . ` O  .. . . ..+.v @.... . . . . . . #.$.%.&.. . . . . . ",
". . . . *.=.. -.. ;.>.,.'.. . . ).!.. . . . ~.{.].^.. . . . . . ",
". . . . . /.(._.:.<.[.. . . . }.|.1.2.. . v '.3.8 4.9 . . . . . ",
". . . . . . 5.6.7.8.. . . 9.0.a.b.c.9.. . S . d.D e.f.. . . . . ",
". . . . . . g.h.i.j.k.. . l.m.n.o.. . . p.q.r.s.. t.u.. . . . . ",
". . . . . . . . v.w.x.y.).z.A.B.. . . E z.C.D.E.F.G.. . . . . . ",
". . . . . . . H.I.J.K.L.M.N.O.. . . . P.Q.. R.S.T.. . . . . . . ",
". . . . . . . U.V.W.X.Y.Z.`. +. . . .+a.9.. ++9 . . . . . . . . ",
". . . . . . @+#+$+%+&+*+=+-+;+. . . ;.>+. ,+'+. . . . . . . . . ",
". . . . . . )+!+~+{+]+^+/+(+M._+. . :+. . <+[+. . . . . . . . . ",
". . . . . }+|+1+2+3+4+5+6+7+8+[.9+0+T . . a+b+. . . . . . . . . ",
". . . . . c+d+e+f+g+h+i+j+k+l+m+n+o+9.. p+q+L . . . . . . . . . ",
". . . . . r+s+t+u+v+w+x+y+z+A+B+C+D+E+. F+G+. . . . . . . . . . ",
". . . . . H+I+J+K+L+M+N+. . . . O+P+. & Q+T.. . . . . . . . . . ",
". . . . R+S+T+U+V+W+X+. . . . . . Y+Z+`+ @. . . . . . . . . . . ",
". . . . .@+@@@#@. . . . . . . . . + $@%@0 . . . . . . . . . . . ",
". . . . &@*@. . . . . . . . . . . . . =@-@. . . . . . . . . . . ",
". . . . . . . . . . . . . . . . . . . . . . . . . . . . . . . . ",
"  . . . . . . . . . . . . . . . . . . . . . . . . . . . . . .   ",
"    . . . . . . . . . . . . . . . . . . . . . . . . . . . .     ",
"      . . . . . . . . . . . . . . . . . . . . . . . . . .       "};
